<svg xmlns="http://www.w3.org/2000/svg" width="375" viewBox="0 0 375 375" height="375" version="1.0"><defs><clipPath id="a"><path d="M 38 46.351562 L 342 46.351562 L 342 239.101562 L 38 239.101562 Z M 38 46.351562"/></clipPath></defs><g clip-path="url(#a)"><path fill="#FFF" d="M 156.921875 164.402344 C 156.792969 164.335938 143.429688 158.335938 134.273438 161.386719 C 134.53125 163.214844 135.429688 166.871094 138.546875 169.824219 C 142.144531 173.257812 147.671875 174.863281 154.964844 174.574219 C 155.894531 174.574219 156.699219 175.277344 156.730469 176.210938 C 156.761719 177.140625 156.023438 177.941406 155.089844 177.972656 C 154.511719 178.007812 153.933594 178.007812 153.355469 178.007812 C 145.9375 178.007812 140.121094 176.050781 136.136719 172.230469 C 130.804688 167.097656 130.742188 160.519531 130.742188 160.261719 C 130.742188 159.589844 131.125 158.980469 131.769531 158.691406 C 142.335938 154.101562 157.660156 161 158.335938 161.289062 C 159.203125 161.675781 159.558594 162.699219 159.171875 163.535156 C 158.785156 164.433594 157.757812 164.820312 156.921875 164.402344 Z M 158.785156 155.480469 C 159.492188 156.089844 160.554688 155.996094 161.195312 155.320312 C 161.804688 154.613281 161.742188 153.523438 161.035156 152.914062 C 160.585938 152.527344 150.015625 143.703125 125.085938 152.59375 C 116.507812 155.640625 110.179688 155.800781 106.230469 153.011719 C 101.21875 149.480469 100.640625 141.746094 100.640625 136.226562 C 100.640625 131.734375 102.757812 125.769531 104.785156 120.023438 C 107.546875 112.226562 110.40625 104.171875 108.800781 98.109375 C 107.515625 93.199219 104.367188 92.460938 101.3125 91.753906 C 96.878906 90.726562 90.777344 89.316406 83.515625 74.8125 C 73.363281 54.597656 73.398438 49.785156 73.492188 49.109375 C 73.816406 48.5 73.78125 47.761719 73.300781 47.183594 C 72.691406 46.480469 71.628906 46.351562 70.890625 46.960938 C 68.480469 48.980469 71.695312 58.867188 80.433594 76.320312 C 88.429688 92.269531 95.691406 93.96875 100.511719 95.058594 C 103.464844 95.734375 104.6875 96.023438 105.457031 98.941406 C 106.773438 104.011719 104.109375 111.554688 101.507812 118.867188 C 99.355469 124.902344 97.167969 131.160156 97.167969 136.226562 C 97.167969 142.484375 97.910156 151.339844 104.203125 155.769531 C 106.648438 157.503906 109.730469 158.367188 113.394531 158.367188 C 117.054688 158.367188 121.328125 157.503906 126.148438 155.769531 C 148.988281 147.652344 158.625 155.351562 158.785156 155.480469 Z M 128.84375 139.4375 C 134.46875 139.917969 139.316406 139.886719 143.558594 139.855469 C 155.027344 139.789062 161.933594 139.757812 169.386719 149.289062 C 169.707031 149.707031 170.222656 149.929688 170.738281 149.929688 C 171.089844 149.929688 171.476562 149.800781 171.796875 149.578125 C 172.535156 149 172.664062 147.941406 172.085938 147.203125 C 163.605469 136.355469 155.1875 136.421875 143.558594 136.484375 C 139.351562 136.515625 134.59375 136.515625 129.132812 136.066406 C 121.808594 135.457031 116.765625 133.4375 114.515625 130.226562 C 112.589844 127.46875 113.328125 124.710938 113.359375 124.582031 C 113.617188 123.683594 113.105469 122.75 112.203125 122.460938 C 111.304688 122.207031 110.339844 122.71875 110.082031 123.617188 C 110.019531 123.777344 108.832031 127.980469 111.65625 132.089844 C 114.515625 136.226562 120.300781 138.730469 128.84375 139.4375 Z M 95.371094 148.871094 C 95.015625 148.808594 61.511719 140.976562 52.804688 114.472656 C 49.015625 103.019531 45.800781 95.765625 43.875 91.433594 C 42.941406 89.378906 42.074219 87.390625 41.882812 86.523438 C 42.105469 86.492188 42.460938 86.429688 43.070312 86.394531 C 49.398438 85.980469 56.660156 86.394531 56.757812 86.394531 C 57.527344 86.429688 58.234375 85.945312 58.457031 85.210938 C 58.683594 84.472656 58.394531 83.667969 57.71875 83.25 C 57.429688 83.058594 50.554688 78.597656 56.628906 66.855469 L 63.566406 53.410156 C 63.984375 52.574219 63.664062 51.550781 62.828125 51.132812 C 61.992188 50.714844 60.964844 51.035156 60.546875 51.871094 L 53.574219 65.25 C 49.109375 73.914062 50.683594 79.59375 52.773438 82.800781 C 50.042969 82.738281 46.316406 82.738281 42.8125 82.964844 C 41.238281 83.058594 39.632812 83.285156 38.832031 84.632812 C 37.835938 86.269531 38.703125 88.191406 40.757812 92.8125 C 42.652344 97.082031 45.832031 104.238281 49.558594 115.53125 C 53.414062 127.277344 62.441406 137.351562 75.679688 144.667969 C 85.605469 150.15625 94.246094 152.113281 94.632812 152.207031 C 94.761719 152.238281 94.890625 152.238281 95.015625 152.238281 C 95.789062 152.238281 96.496094 151.695312 96.6875 150.925781 C 96.847656 149.992188 96.300781 149.09375 95.371094 148.871094 Z M 89.78125 140.109375 C 90.167969 140.109375 90.582031 139.984375 90.90625 139.695312 C 91.613281 139.085938 91.707031 137.992188 91.066406 137.289062 C 83.164062 128.140625 77.15625 106.964844 77.089844 106.738281 C 76.835938 105.839844 75.902344 105.328125 75.003906 105.550781 C 74.105469 105.808594 73.558594 106.738281 73.816406 107.636719 C 74.070312 108.535156 80.078125 129.777344 88.496094 139.5 C 88.847656 139.917969 89.300781 140.109375 89.78125 140.109375 Z M 218.058594 187.953125 C 216.515625 182.820312 215.90625 176.625 216.324219 169.566406 C 216.738281 162.378906 218.058594 156.859375 218.089844 156.796875 C 218.28125 156.027344 217.929688 155.257812 217.222656 154.871094 C 207.132812 149.609375 191.105469 146.59375 190.429688 146.464844 C 190.300781 146.433594 190.203125 146.433594 190.074219 146.433594 C 189.949219 146.433594 189.851562 146.433594 189.722656 146.464844 C 189.046875 146.59375 173.015625 149.609375 162.929688 154.871094 C 162.222656 155.222656 161.871094 156.027344 162.0625 156.796875 C 162.0625 156.859375 163.410156 162.378906 163.828125 169.566406 C 164.246094 176.660156 163.636719 182.851562 162.09375 187.953125 C 161.710938 189.238281 161.324219 190.457031 160.96875 191.644531 C 157.179688 203.742188 154.898438 211.054688 165.820312 218.46875 C 166.109375 218.660156 166.464844 218.757812 166.785156 218.757812 C 167.332031 218.757812 167.878906 218.5 168.199219 218.019531 C 168.710938 217.25 168.519531 216.191406 167.75 215.644531 C 158.914062 209.644531 160.585938 204.316406 164.246094 192.636719 C 164.601562 191.449219 164.984375 190.230469 165.402344 188.949219 C 167.074219 183.429688 167.714844 176.851562 167.265625 169.375 C 166.945312 163.921875 166.144531 159.429688 165.726562 157.308594 C 174.71875 152.976562 188.117188 150.25 190.140625 149.867188 C 192.164062 150.25 205.558594 152.976562 214.554688 157.308594 C 214.105469 159.429688 213.300781 163.886719 213.011719 169.375 C 212.597656 176.851562 213.207031 183.429688 214.875 188.949219 C 215.261719 190.265625 215.648438 191.484375 216.03125 192.671875 C 219.664062 204.316406 221.332031 209.644531 212.53125 215.644531 C 211.761719 216.160156 211.535156 217.21875 212.082031 218.019531 C 212.402344 218.5 212.949219 218.757812 213.496094 218.757812 C 213.816406 218.757812 214.167969 218.660156 214.460938 218.46875 C 225.382812 211.054688 223.101562 203.773438 219.308594 191.675781 C 218.828125 190.457031 218.441406 189.238281 218.058594 187.953125 Z M 248.351562 158.722656 C 237.8125 154.132812 222.457031 161.03125 221.785156 161.320312 C 220.917969 161.707031 220.5625 162.734375 220.949219 163.566406 C 221.332031 164.402344 222.363281 164.785156 223.195312 164.402344 C 223.324219 164.335938 236.691406 158.335938 245.84375 161.386719 C 245.589844 163.214844 244.6875 166.871094 241.574219 169.824219 C 237.976562 173.257812 232.449219 174.863281 225.15625 174.574219 C 224.226562 174.539062 223.421875 175.277344 223.390625 176.210938 C 223.359375 177.140625 224.097656 177.941406 225.027344 177.972656 C 225.605469 178.007812 226.183594 178.007812 226.761719 178.007812 C 234.183594 178.007812 240 176.050781 243.980469 172.230469 C 249.316406 167.097656 249.378906 160.519531 249.378906 160.261719 C 249.378906 159.589844 248.960938 158.976562 248.351562 158.722656 Z M 274.628906 98.976562 C 275.402344 96.054688 276.621094 95.765625 279.578125 95.09375 C 284.394531 93.96875 291.6875 92.300781 299.65625 76.351562 C 308.425781 58.867188 311.636719 48.980469 309.230469 46.960938 C 308.523438 46.351562 307.429688 46.449219 306.820312 47.183594 C 306.371094 47.730469 306.304688 48.5 306.625 49.109375 C 306.691406 49.785156 306.753906 54.597656 296.601562 74.8125 C 289.34375 89.347656 283.238281 90.726562 278.804688 91.753906 C 275.753906 92.460938 272.605469 93.167969 271.320312 98.109375 C 269.746094 104.171875 272.605469 112.226562 275.335938 120.023438 C 277.390625 125.800781 279.480469 131.734375 279.480469 136.226562 C 279.480469 141.746094 278.902344 149.480469 273.890625 153.011719 C 269.9375 155.800781 263.609375 155.640625 255.035156 152.59375 C 230.070312 143.703125 219.503906 152.527344 219.085938 152.914062 C 218.378906 153.523438 218.3125 154.582031 218.925781 155.289062 C 219.535156 155.996094 220.59375 156.089844 221.332031 155.480469 C 221.367188 155.449219 223.742188 153.492188 228.882812 152.5625 C 233.671875 151.664062 241.925781 151.535156 253.941406 155.800781 C 258.761719 157.535156 263.03125 158.402344 266.695312 158.402344 C 270.355469 158.402344 273.441406 157.535156 275.882812 155.800781 C 282.179688 151.375 282.917969 142.519531 282.917969 136.261719 C 282.917969 131.191406 280.703125 124.933594 278.582031 118.902344 C 275.980469 111.585938 273.3125 104.042969 274.628906 98.976562 Z M 208.355469 149.578125 C 208.675781 149.832031 209.03125 149.929688 209.414062 149.929688 C 209.929688 149.929688 210.410156 149.707031 210.765625 149.289062 C 218.21875 139.757812 225.125 139.820312 236.59375 139.855469 C 240.867188 139.886719 245.683594 139.886719 251.308594 139.4375 C 259.851562 138.730469 265.632812 136.261719 268.492188 132.058594 C 271.320312 127.917969 270.101562 123.746094 270.066406 123.585938 C 269.8125 122.6875 268.847656 122.175781 267.980469 122.429688 C 267.082031 122.6875 266.566406 123.617188 266.824219 124.515625 C 266.855469 124.644531 267.59375 127.40625 265.667969 130.164062 C 263.417969 133.371094 258.375 135.394531 251.050781 136.003906 C 245.589844 136.453125 240.832031 136.453125 236.625 136.421875 C 224.996094 136.355469 216.578125 136.324219 208.097656 147.136719 C 207.488281 147.910156 207.617188 149 208.355469 149.578125 Z M 341.289062 84.632812 C 340.488281 83.285156 338.878906 83.089844 337.304688 82.964844 C 333.804688 82.738281 330.109375 82.738281 327.347656 82.800781 C 329.433594 79.59375 331.007812 73.914062 326.542969 65.25 L 319.605469 51.804688 C 319.1875 50.972656 318.160156 50.652344 317.324219 51.066406 C 316.488281 51.484375 316.167969 52.511719 316.585938 53.347656 L 323.523438 66.789062 C 329.597656 78.535156 322.722656 82.996094 322.433594 83.1875 C 321.757812 83.605469 321.4375 84.40625 321.691406 85.144531 C 321.917969 85.882812 322.65625 86.363281 323.429688 86.332031 C 323.492188 86.332031 330.785156 85.914062 337.082031 86.332031 C 337.660156 86.363281 338.046875 86.429688 338.269531 86.460938 C 338.078125 87.359375 337.210938 89.316406 336.277344 91.371094 C 334.351562 95.703125 331.105469 102.953125 327.347656 114.410156 C 318.640625 140.882812 285.101562 148.742188 284.78125 148.808594 C 283.851562 149 283.304688 149.929688 283.496094 150.828125 C 283.6875 151.628906 284.363281 152.144531 285.167969 152.144531 C 285.296875 152.144531 285.421875 152.144531 285.550781 152.113281 C 285.90625 152.015625 294.578125 150.058594 304.507812 144.570312 C 317.742188 137.289062 326.769531 127.210938 330.625 115.4375 C 334.351562 104.109375 337.53125 96.984375 339.425781 92.71875 C 341.449219 88.191406 342.285156 86.269531 341.289062 84.632812 Z M 303.027344 106.738281 C 302.964844 106.964844 296.957031 128.140625 289.054688 137.289062 C 288.445312 137.992188 288.507812 139.085938 289.214844 139.695312 C 289.535156 139.984375 289.921875 140.109375 290.339844 140.109375 C 290.820312 140.109375 291.300781 139.917969 291.625 139.535156 C 300.007812 129.8125 306.046875 108.570312 306.273438 107.671875 C 306.53125 106.773438 305.984375 105.839844 305.085938 105.585938 C 304.21875 105.328125 303.253906 105.839844 303.027344 106.738281 Z M 206.554688 170.273438 C 208.515625 167.769531 210.894531 167.835938 211.054688 167.867188 C 211.984375 167.929688 212.789062 167.226562 212.886719 166.292969 C 212.949219 165.363281 212.273438 164.53125 211.34375 164.464844 C 211.183594 164.464844 207.167969 164.175781 204.019531 168.058594 C 198.78125 174.507812 199.230469 188.019531 205.304688 208.199219 C 207.199219 214.488281 209.09375 222.0625 206.972656 224.695312 C 206.683594 225.046875 205.847656 226.042969 202.765625 225.753906 C 193.964844 224.917969 190.621094 224.085938 190.589844 224.050781 C 190.429688 224.019531 190.269531 223.988281 190.109375 224.019531 C 189.949219 224.019531 189.820312 224.019531 189.660156 224.050781 C 189.625 224.050781 186.285156 224.886719 177.484375 225.753906 C 174.398438 226.042969 173.5625 225.015625 173.273438 224.695312 C 171.121094 222.09375 173.050781 214.523438 174.945312 208.199219 C 181.015625 188.019531 181.464844 174.507812 176.230469 168.058594 C 173.082031 164.175781 169.066406 164.464844 168.90625 164.464844 C 167.972656 164.53125 167.265625 165.363281 167.363281 166.292969 C 167.425781 167.226562 168.296875 167.929688 169.195312 167.835938 C 169.226562 167.835938 171.605469 167.707031 173.597656 170.175781 C 176.101562 173.289062 179.21875 182.242188 171.699219 207.207031 C 168.9375 216.382812 167.714844 223.21875 170.671875 226.8125 C 171.957031 228.382812 173.917969 229.1875 176.488281 229.1875 C 176.90625 229.1875 177.355469 229.152344 177.835938 229.121094 C 185.417969 228.414062 189.046875 227.679688 190.171875 227.421875 C 191.296875 227.679688 194.925781 228.382812 202.507812 229.121094 C 202.957031 229.152344 203.40625 229.1875 203.859375 229.1875 C 206.429688 229.1875 208.386719 228.382812 209.671875 226.8125 C 212.628906 223.21875 211.40625 216.351562 208.644531 207.175781 C 201.03125 182.402344 204.082031 173.417969 206.554688 170.273438 Z M 200.964844 230.535156 C 200.902344 230.597656 195.375 235.699219 190.109375 235.699219 C 190.109375 235.699219 190.074219 235.699219 190.074219 235.699219 C 190.074219 235.699219 190.042969 235.699219 190.042969 235.699219 C 184.808594 235.699219 179.25 230.597656 179.183594 230.535156 C 178.511719 229.890625 177.417969 229.925781 176.777344 230.628906 C 176.132812 231.304688 176.164062 232.394531 176.839844 233.035156 C 177.097656 233.292969 183.394531 239.101562 190.011719 239.101562 C 190.011719 239.101562 190.042969 239.101562 190.042969 239.101562 C 190.042969 239.101562 190.074219 239.101562 190.074219 239.101562 C 196.660156 239.101562 202.992188 233.261719 203.246094 233.035156 C 203.921875 232.394531 203.953125 231.335938 203.3125 230.628906 C 202.699219 229.925781 201.640625 229.890625 200.964844 230.535156 Z M 200.964844 230.535156"/></g><g fill="#FFF"><g><g><path d="M 11.410156 0 C 12.230469 0 12.75 -0.597656 12.75 -1.417969 L 12.75 -1.566406 C 12.378906 -7.753906 12.230469 -13.796875 12.230469 -19.984375 C 15.136719 -18.269531 16.105469 -17.152344 32.066406 -3.207031 C 32.289062 -2.984375 32.664062 -2.832031 33.109375 -2.832031 C 33.558594 -2.832031 33.929688 -2.984375 34.226562 -3.355469 C 34.453125 -3.730469 34.601562 -4.027344 34.601562 -4.324219 C 34.601562 -4.699219 34.453125 -5.070312 34.078125 -5.445312 C 18.269531 -19.464844 16.628906 -20.878906 13.125 -22.894531 C 26.769531 -30.125 32.8125 -37.808594 32.8125 -43.699219 C 32.8125 -49.664062 26.921875 -53.617188 16.703125 -53.617188 L 15.4375 -53.617188 C 15.0625 -53.617188 14.617188 -53.617188 14.242188 -53.542969 L 14.390625 -54.734375 C 14.46875 -55.628906 13.871094 -56.375 12.976562 -56.375 C 12.15625 -56.375 11.632812 -55.855469 11.410156 -55.035156 L 11.1875 -53.242188 C 8.875 -52.945312 6.785156 -52.421875 4.625 -51.753906 C 3.953125 -51.527344 3.578125 -50.933594 3.578125 -50.335938 C 3.578125 -50.113281 3.578125 -49.960938 3.652344 -49.886719 C 3.804688 -49.21875 4.25 -48.84375 5.070312 -48.84375 C 5.292969 -48.84375 5.445312 -48.84375 5.519531 -48.917969 C 7.234375 -49.441406 9.023438 -49.886719 10.886719 -50.1875 C 9.992188 -41.683594 9.46875 -33.109375 9.320312 -24.535156 C 7.980469 -24.90625 6.636719 -25.054688 5.292969 -25.054688 C 1.042969 -25.054688 -2.011719 -23.117188 -2.832031 -21.253906 C -2.984375 -20.878906 -3.058594 -20.507812 -3.058594 -20.207031 C -3.058594 -18.792969 -1.9375 -17.523438 0.0742188 -17.523438 C 0.746094 -17.523438 1.492188 -17.597656 2.3125 -17.972656 C 4.773438 -18.941406 7.085938 -19.835938 9.246094 -20.953125 C 9.246094 -14.390625 9.320312 -7.90625 9.84375 -1.34375 C 9.84375 -0.523438 10.441406 0 11.261719 0 Z M 12.304688 -25.875 C 12.527344 -34.152344 13.050781 -42.28125 13.945312 -50.558594 C 14.390625 -50.632812 14.839844 -50.632812 15.285156 -50.632812 L 16.703125 -50.632812 C 22.667969 -50.632812 29.753906 -49.21875 29.753906 -43.476562 C 29.753906 -36.390625 18.566406 -29.15625 12.304688 -25.875 Z M 0.148438 -20.433594 C 0.671875 -20.953125 2.164062 -21.847656 4.472656 -22.074219 C 1.117188 -20.507812 0.523438 -20.433594 0.148438 -20.433594 Z M 0.148438 -20.433594" transform="translate(44.444 305.702)"/></g></g></g><g fill="#FFF"><g><g><path d="M 11.855469 -13.945312 C 12.976562 -15.957031 13.648438 -18.269531 13.648438 -20.582031 C 14.46875 -20.433594 15.285156 -20.359375 16.257812 -20.359375 C 17.972656 -20.359375 19.835938 -20.65625 21.847656 -21.179688 C 22.59375 -21.402344 22.96875 -21.925781 22.96875 -22.746094 L 22.96875 -23.042969 C 22.746094 -23.640625 22.148438 -24.160156 21.476562 -24.160156 C 21.253906 -24.160156 21.328125 -24.085938 21.105469 -24.085938 C 19.386719 -23.566406 17.824219 -23.339844 16.332031 -23.339844 C 15.136719 -23.339844 14.09375 -23.566406 13.199219 -23.789062 C 12.601562 -26.472656 10.140625 -30.5 7.308594 -30.125 C 7.085938 -30.277344 6.785156 -30.351562 6.488281 -30.351562 C 6.113281 -30.351562 5.742188 -30.277344 5.519531 -30.050781 C 3.355469 -28.1875 1.714844 -25.800781 0.894531 -22.894531 C 0.371094 -21.253906 0.148438 -19.6875 0.148438 -18.195312 C 0.148438 -13.125 2.984375 -9.917969 6.1875 -9.917969 C 8.203125 -9.917969 10.140625 -11.1875 11.855469 -13.945312 Z M 9.246094 -15.511719 C 8.128906 -13.722656 7.085938 -12.828125 6.113281 -12.828125 C 4.398438 -12.828125 3.207031 -15.285156 3.207031 -18.492188 C 3.207031 -20.878906 3.953125 -23.714844 5.816406 -26.101562 C 6.488281 -24.386719 8.128906 -22.667969 10.589844 -21.550781 C 10.589844 -21.253906 10.664062 -20.953125 10.664062 -20.582031 C 10.664062 -18.71875 10.066406 -16.925781 9.246094 -15.511719 Z M 9.246094 -15.511719" transform="translate(75.165 305.702)"/></g></g></g><g fill="#FFF"><g><g><path d="M -2.011719 -11.109375 C -2.164062 -10.738281 -2.238281 -10.367188 -2.238281 -9.992188 C -2.238281 -8.128906 -0.597656 -7.007812 1.269531 -7.007812 C 3.730469 -7.007812 6.5625 -8.875 6.5625 -13.871094 L 6.5625 -14.46875 C 6.5625 -14.691406 6.5625 -14.914062 6.488281 -15.136719 C 9.992188 -17.746094 13.496094 -19.910156 17.671875 -21.328125 C 18.34375 -21.550781 18.71875 -22.074219 18.71875 -22.746094 C 18.71875 -22.96875 18.71875 -23.191406 18.644531 -23.265625 C 18.417969 -23.863281 17.898438 -24.234375 17.300781 -24.234375 C 17.078125 -24.234375 16.851562 -24.234375 16.777344 -24.160156 C 12.675781 -22.746094 9.246094 -20.730469 5.890625 -18.34375 C 5.292969 -20.730469 3.503906 -24.535156 3.503906 -27.144531 C 3.503906 -28.039062 3.730469 -28.710938 4.101562 -29.082031 C 4.324219 -29.304688 4.773438 -29.828125 5.59375 -29.828125 C 6.113281 -29.828125 6.710938 -29.679688 7.382812 -29.304688 C 7.679688 -29.230469 7.90625 -29.15625 8.054688 -29.15625 C 8.574219 -29.15625 9.023438 -29.382812 9.394531 -29.902344 C 9.546875 -30.125 9.621094 -30.351562 9.621094 -30.648438 C 9.621094 -31.246094 9.320312 -31.691406 8.800781 -31.917969 C 7.753906 -32.511719 6.710938 -32.8125 5.59375 -32.8125 C 2.832031 -32.8125 0.523438 -30.722656 0.523438 -26.921875 C 0.523438 -26.398438 0.597656 -25.949219 0.671875 -25.355469 C 1.269531 -22 2.683594 -19.761719 3.355469 -16.40625 C -0.449219 -13.496094 -1.492188 -12.527344 -2.011719 -11.109375 Z M 0.746094 -10.066406 C 0.96875 -10.589844 1.789062 -11.335938 3.503906 -12.75 C 3.132812 -9.992188 1.269531 -9.695312 0.746094 -10.066406 Z M 0.746094 -10.066406" transform="translate(90.898 305.702)"/></g></g></g><g fill="#FFF"><g><g><path d="M 2.832031 -10.664062 C 5.445312 -15.882812 10.515625 -27.441406 13.421875 -27.441406 C 14.242188 -27.441406 14.765625 -26.621094 15.285156 -24.535156 C 17.003906 -16.480469 20.132812 -12.675781 24.011719 -12.675781 C 27.515625 -12.675781 31.617188 -15.808594 35.570312 -21.773438 C 35.71875 -22 35.792969 -22.222656 35.792969 -22.519531 C 35.792969 -23.042969 35.570312 -23.488281 35.121094 -23.789062 C 34.898438 -23.9375 34.601562 -24.011719 34.304688 -24.011719 C 33.78125 -24.011719 33.332031 -23.9375 33.035156 -23.414062 C 30.203125 -19.238281 26.25 -15.136719 23.339844 -15.734375 C 22.445312 -15.882812 21.550781 -16.554688 20.730469 -17.824219 C 17.597656 -22.746094 18.941406 -29.304688 14.242188 -30.277344 C 14.019531 -30.351562 13.722656 -30.351562 13.273438 -30.351562 C 9.171875 -30.351562 5.816406 -23.488281 3.429688 -18.566406 C 4.027344 -30.277344 4.398438 -43.476562 5.964844 -51.753906 C 6.1875 -52.574219 5.59375 -53.320312 4.773438 -53.542969 C 3.953125 -53.617188 3.28125 -53.09375 3.058594 -52.273438 C 1.269531 -41.910156 0.820312 -24.832031 0 -11.484375 C -0.0742188 -10.515625 0.746094 -9.917969 1.566406 -9.917969 C 2.089844 -9.917969 2.535156 -10.140625 2.832031 -10.664062 Z M 2.832031 -10.664062" transform="translate(102.53 305.702)"/></g></g></g><g fill="#FFF"><g><g><path d="M -0.222656 -10.589844 C 0.449219 -10.140625 1.191406 -9.917969 2.011719 -9.917969 C 4.773438 -9.917969 7.980469 -13.125 9.695312 -15.882812 C 9.46875 -12.378906 11.109375 -9.917969 13.722656 -9.917969 C 16.703125 -9.917969 21.027344 -13.125 25.800781 -21.847656 C 25.875 -22.148438 25.949219 -22.371094 25.949219 -22.519531 C 25.949219 -23.117188 25.652344 -23.566406 25.128906 -23.863281 C 24.980469 -23.9375 24.757812 -24.011719 24.460938 -24.011719 C 23.863281 -24.011719 23.414062 -23.789062 23.117188 -23.265625 C 20.730469 -18.492188 16.332031 -12.976562 14.167969 -12.976562 C 13.347656 -12.976562 12.902344 -13.648438 12.902344 -15.660156 C 12.902344 -16.628906 12.976562 -17.824219 13.273438 -19.3125 C 13.496094 -20.878906 13.796875 -22.445312 14.316406 -23.863281 C 14.691406 -24.980469 14.019531 -25.949219 12.902344 -25.949219 C 12.378906 -25.949219 11.929688 -25.652344 11.558594 -25.054688 C 9.769531 -21.625 6.859375 -15.957031 3.804688 -13.722656 C 3.132812 -13.199219 2.609375 -12.976562 2.089844 -12.976562 C 1.269531 -12.976562 0.894531 -13.570312 0.894531 -14.839844 C 0.894531 -18.71875 5.292969 -27.367188 13.273438 -27.367188 C 14.09375 -27.367188 14.765625 -28.039062 14.765625 -28.859375 C 14.765625 -29.679688 14.09375 -30.351562 13.273438 -30.351562 C 3.953125 -30.351562 -2.011719 -20.878906 -2.011719 -14.839844 C -2.011719 -12.976562 -1.417969 -11.410156 -0.222656 -10.589844 Z M -0.222656 -10.589844" transform="translate(130.79 305.702)"/></g></g></g><g fill="#FFF"><g><g><path d="M 1.492188 -9.992188 C 2.164062 -9.992188 2.609375 -10.289062 2.832031 -10.960938 C 5.59375 -18.71875 8.875 -26.84375 10.589844 -26.84375 C 10.886719 -26.84375 11.109375 -26.621094 11.335938 -26.101562 C 11.558594 -25.429688 11.707031 -24.535156 11.707031 -23.414062 C 11.707031 -20.65625 11.1875 -17.152344 14.390625 -15.136719 C 15.210938 -14.617188 16.105469 -14.316406 17.226562 -14.316406 C 21.179688 -14.316406 24.980469 -18.195312 27.21875 -21.847656 C 27.367188 -22.074219 27.441406 -22.296875 27.441406 -22.59375 C 27.441406 -23.191406 27.21875 -23.640625 26.695312 -23.863281 C 26.472656 -24.011719 26.175781 -24.085938 25.875 -24.085938 C 25.355469 -24.085938 24.90625 -23.863281 24.683594 -23.339844 C 23.265625 -20.878906 19.984375 -17.300781 17.375 -17.300781 C 16.851562 -17.300781 16.40625 -17.449219 16.03125 -17.671875 C 14.316406 -18.792969 14.691406 -21.027344 14.691406 -23.488281 C 14.691406 -24.757812 14.617188 -26.101562 14.09375 -27.292969 C 13.421875 -29.007812 12.007812 -29.902344 10.441406 -29.902344 C 7.308594 -29.902344 5.59375 -25.949219 3.652344 -21.253906 C 3.953125 -24.160156 4.175781 -26.621094 4.472656 -28.710938 C 4.699219 -29.53125 4.027344 -30.351562 3.207031 -30.425781 C 2.386719 -30.648438 1.640625 -29.976562 1.566406 -29.15625 C 0.746094 -23.414062 0.222656 -16.332031 0 -11.558594 C -0.0742188 -10.738281 0.597656 -9.992188 1.492188 -9.992188 Z M 1.492188 -9.992188" transform="translate(149.207 305.702)"/></g></g></g><g fill="#FFF"><g><g><path d="M 10.066406 0.0742188 C 15.734375 0.0742188 18.867188 -4.324219 18.867188 -10.066406 C 18.867188 -12.675781 18.195312 -15.660156 16.777344 -18.566406 C 19.238281 -19.386719 22.371094 -19.835938 25.949219 -19.835938 C 26.84375 -19.835938 27.890625 -19.761719 28.859375 -19.6875 C 29.753906 -19.613281 30.425781 -20.285156 30.425781 -21.179688 C 30.425781 -22 29.902344 -22.59375 29.082031 -22.667969 C 27.964844 -22.746094 26.921875 -22.820312 25.800781 -22.820312 C 21.625 -22.820312 18.195312 -22.148438 15.285156 -21.253906 C 12.976562 -24.90625 9.992188 -28.039062 7.382812 -31.246094 C 4.921875 -34.453125 2.984375 -38.253906 2.984375 -41.910156 C 2.984375 -44.222656 3.652344 -46.382812 5.445312 -48.171875 C 7.007812 -49.738281 8.726562 -50.484375 10.664062 -50.484375 C 14.617188 -50.484375 18.195312 -47.277344 19.238281 -42.65625 C 19.464844 -41.835938 19.984375 -41.460938 20.730469 -41.460938 L 21.027344 -41.460938 C 21.847656 -41.683594 22.222656 -42.207031 22.222656 -42.953125 L 22.222656 -43.25 C 21.027344 -49.515625 15.882812 -53.46875 10.664062 -53.46875 C 8.054688 -53.46875 5.445312 -52.574219 3.28125 -50.261719 C 0.96875 -47.875 0 -44.964844 0 -41.984375 C 0 -37.734375 2.011719 -33.183594 4.996094 -29.382812 C 7.457031 -26.175781 10.289062 -23.414062 12.453125 -20.207031 C 8.277344 -18.417969 3.578125 -15.210938 1.640625 -11.109375 C 1.042969 -9.84375 0.746094 -8.648438 0.746094 -7.605469 C 0.746094 -3.132812 5.070312 0.0742188 10.066406 0.0742188 Z M 12.976562 -3.730469 C 12.15625 -3.207031 11.109375 -2.984375 9.84375 -2.984375 C 6.859375 -2.984375 3.804688 -4.699219 3.804688 -7.605469 C 3.804688 -8.351562 3.953125 -9.097656 4.324219 -9.769531 C 6.113281 -13.347656 10.289062 -16.105469 13.945312 -17.597656 C 15.0625 -15.285156 15.882812 -12.453125 15.882812 -9.84375 C 15.882812 -7.234375 15.0625 -4.921875 12.976562 -3.730469 Z M 12.976562 -3.730469" transform="translate(180.151 305.702)"/></g></g></g><g fill="#FFF"><g><g><path d="M 2.832031 -10.664062 C 5.445312 -15.882812 10.515625 -27.441406 13.421875 -27.441406 C 14.242188 -27.441406 14.765625 -26.621094 15.285156 -24.535156 C 17.003906 -16.480469 20.132812 -12.675781 24.011719 -12.675781 C 27.515625 -12.675781 31.617188 -15.808594 35.570312 -21.773438 C 35.71875 -22 35.792969 -22.222656 35.792969 -22.519531 C 35.792969 -23.042969 35.570312 -23.488281 35.121094 -23.789062 C 34.898438 -23.9375 34.601562 -24.011719 34.304688 -24.011719 C 33.78125 -24.011719 33.332031 -23.9375 33.035156 -23.414062 C 30.203125 -19.238281 26.25 -15.136719 23.339844 -15.734375 C 22.445312 -15.882812 21.550781 -16.554688 20.730469 -17.824219 C 17.597656 -22.746094 18.941406 -29.304688 14.242188 -30.277344 C 14.019531 -30.351562 13.722656 -30.351562 13.273438 -30.351562 C 9.171875 -30.351562 5.816406 -23.488281 3.429688 -18.566406 C 4.027344 -30.277344 4.398438 -43.476562 5.964844 -51.753906 C 6.1875 -52.574219 5.59375 -53.320312 4.773438 -53.542969 C 3.953125 -53.617188 3.28125 -53.09375 3.058594 -52.273438 C 1.269531 -41.910156 0.820312 -24.832031 0 -11.484375 C -0.0742188 -10.515625 0.746094 -9.917969 1.566406 -9.917969 C 2.089844 -9.917969 2.535156 -10.140625 2.832031 -10.664062 Z M 2.832031 -10.664062" transform="translate(204.758 305.702)"/></g></g></g><g fill="#FFF"><g><g><path d="M 1.492188 -10.515625 C 2.3125 -10.515625 2.984375 -11.109375 2.984375 -11.929688 C 3.355469 -19.910156 11.109375 -28.710938 14.988281 -27.964844 C 15.808594 -27.742188 16.480469 -28.261719 16.703125 -29.082031 C 16.925781 -29.902344 16.40625 -30.648438 15.585938 -30.871094 C 15.0625 -30.945312 14.691406 -31.023438 14.390625 -31.023438 C 10.214844 -31.023438 5.816406 -26.175781 3.652344 -22.59375 C 3.878906 -24.757812 3.953125 -26.996094 3.953125 -29.304688 C 3.953125 -30.125 3.28125 -30.796875 2.460938 -30.796875 C 1.640625 -30.796875 0.96875 -30.125 0.96875 -29.304688 C 0.894531 -23.640625 0.0742188 -17.898438 0 -12.007812 C 0 -11.1875 0.671875 -10.589844 1.492188 -10.515625 Z M 1.492188 -10.515625" transform="translate(233.018 305.702)"/></g></g></g><g fill="#FFF"><g><g><path d="M 7.828125 -9.917969 C 12.675781 -9.917969 18.644531 -12.675781 24.234375 -21.847656 C 24.386719 -22.074219 24.460938 -22.296875 24.460938 -22.59375 C 24.460938 -23.265625 24.234375 -23.640625 23.714844 -23.863281 C 23.488281 -24.011719 23.191406 -24.085938 22.96875 -24.085938 C 22.445312 -24.085938 22 -23.863281 21.699219 -23.414062 C 19.089844 -19.015625 16.257812 -16.105469 13.273438 -14.390625 C 11.558594 -13.496094 9.546875 -12.902344 7.53125 -12.902344 C 4.773438 -12.902344 2.386719 -14.09375 2.386719 -17.300781 C 2.386719 -17.671875 2.460938 -18.046875 2.535156 -18.566406 C 7.53125 -18.941406 13.421875 -22.59375 13.421875 -26.546875 C 13.421875 -28.710938 11.78125 -30.425781 9.394531 -30.425781 C 7.90625 -30.425781 6.113281 -29.753906 4.25 -27.964844 C 1.34375 -25.203125 -0.523438 -20.953125 -0.523438 -17.300781 C -0.523438 -13.347656 1.789062 -9.917969 7.828125 -9.917969 Z M 3.578125 -21.773438 C 5.59375 -25.949219 8.054688 -27.441406 9.46875 -27.441406 C 9.992188 -27.441406 10.289062 -27.292969 10.367188 -26.921875 C 10.738281 -25.203125 7.234375 -22.371094 3.578125 -21.773438 Z M 3.578125 -21.773438" transform="translate(246.365 305.702)"/></g></g></g><g fill="#FFF"><g><g><path d="M -2.011719 -11.109375 C -2.164062 -10.738281 -2.238281 -10.367188 -2.238281 -9.992188 C -2.238281 -8.128906 -0.597656 -7.007812 1.269531 -7.007812 C 3.730469 -7.007812 6.5625 -8.875 6.5625 -13.871094 L 6.5625 -14.46875 C 6.5625 -14.691406 6.5625 -14.914062 6.488281 -15.136719 C 9.992188 -17.746094 13.496094 -19.910156 17.671875 -21.328125 C 18.34375 -21.550781 18.71875 -22.074219 18.71875 -22.746094 C 18.71875 -22.96875 18.71875 -23.191406 18.644531 -23.265625 C 18.417969 -23.863281 17.898438 -24.234375 17.300781 -24.234375 C 17.078125 -24.234375 16.851562 -24.234375 16.777344 -24.160156 C 12.675781 -22.746094 9.246094 -20.730469 5.890625 -18.34375 C 5.292969 -20.730469 3.503906 -24.535156 3.503906 -27.144531 C 3.503906 -28.039062 3.730469 -28.710938 4.101562 -29.082031 C 4.324219 -29.304688 4.773438 -29.828125 5.59375 -29.828125 C 6.113281 -29.828125 6.710938 -29.679688 7.382812 -29.304688 C 7.679688 -29.230469 7.90625 -29.15625 8.054688 -29.15625 C 8.574219 -29.15625 9.023438 -29.382812 9.394531 -29.902344 C 9.546875 -30.125 9.621094 -30.351562 9.621094 -30.648438 C 9.621094 -31.246094 9.320312 -31.691406 8.800781 -31.917969 C 7.753906 -32.511719 6.710938 -32.8125 5.59375 -32.8125 C 2.832031 -32.8125 0.523438 -30.722656 0.523438 -26.921875 C 0.523438 -26.398438 0.597656 -25.949219 0.671875 -25.355469 C 1.269531 -22 2.683594 -19.761719 3.355469 -16.40625 C -0.449219 -13.496094 -1.492188 -12.527344 -2.011719 -11.109375 Z M 0.746094 -10.066406 C 0.96875 -10.589844 1.789062 -11.335938 3.503906 -12.75 C 3.132812 -9.992188 1.269531 -9.695312 0.746094 -10.066406 Z M 0.746094 -10.066406" transform="translate(263.216 305.702)"/></g></g></g><g fill="#FFF"><g><g><path d="M 2.984375 -9.546875 C 3.804688 -9.546875 4.398438 -10.289062 4.398438 -11.109375 C 4.175781 -15.210938 4.101562 -19.089844 4.101562 -22.894531 C 4.101562 -31.917969 4.625 -40.34375 5.742188 -48.621094 L 23.117188 -49.066406 C 23.9375 -49.066406 24.609375 -49.738281 24.609375 -50.558594 C 24.609375 -51.378906 23.9375 -52.050781 23.042969 -52.050781 L 6.113281 -51.601562 C 6.636719 -54.882812 7.234375 -58.089844 7.828125 -61.296875 C 8.054688 -62.191406 7.382812 -63.085938 6.414062 -63.085938 C 5.667969 -63.085938 5.144531 -62.714844 4.921875 -61.894531 C 4.25 -58.539062 3.652344 -55.109375 3.132812 -51.601562 L -10.515625 -51.15625 C -11.335938 -51.15625 -11.929688 -50.632812 -11.929688 -49.8125 L -11.929688 -49.664062 C -11.929688 -48.84375 -11.261719 -48.171875 -10.441406 -48.171875 L 2.683594 -48.546875 C 1.640625 -40.34375 1.117188 -31.765625 1.117188 -22.894531 C 1.117188 -19.015625 1.191406 -15.136719 1.417969 -10.960938 C 1.417969 -10.140625 2.089844 -9.546875 2.910156 -9.546875 Z M 2.984375 -9.546875" transform="translate(274.848 305.702)"/></g></g></g><g fill="#FFF"><g><g><path d="M 2.832031 -10.664062 C 5.445312 -15.882812 10.515625 -27.441406 13.421875 -27.441406 C 14.242188 -27.441406 14.765625 -26.621094 15.285156 -24.535156 C 17.003906 -16.480469 20.132812 -12.675781 24.011719 -12.675781 C 27.515625 -12.675781 31.617188 -15.808594 35.570312 -21.773438 C 35.71875 -22 35.792969 -22.222656 35.792969 -22.519531 C 35.792969 -23.042969 35.570312 -23.488281 35.121094 -23.789062 C 34.898438 -23.9375 34.601562 -24.011719 34.304688 -24.011719 C 33.78125 -24.011719 33.332031 -23.9375 33.035156 -23.414062 C 30.203125 -19.238281 26.25 -15.136719 23.339844 -15.734375 C 22.445312 -15.882812 21.550781 -16.554688 20.730469 -17.824219 C 17.597656 -22.746094 18.941406 -29.304688 14.242188 -30.277344 C 14.019531 -30.351562 13.722656 -30.351562 13.273438 -30.351562 C 9.171875 -30.351562 5.816406 -23.488281 3.429688 -18.566406 C 4.027344 -30.277344 4.398438 -43.476562 5.964844 -51.753906 C 6.1875 -52.574219 5.59375 -53.320312 4.773438 -53.542969 C 3.953125 -53.617188 3.28125 -53.09375 3.058594 -52.273438 C 1.269531 -41.910156 0.820312 -24.832031 0 -11.484375 C -0.0742188 -10.515625 0.746094 -9.917969 1.566406 -9.917969 C 2.089844 -9.917969 2.535156 -10.140625 2.832031 -10.664062 Z M 2.832031 -10.664062" transform="translate(284.989 305.702)"/></g></g></g><g fill="#FFF"><g><g><path d="M -0.222656 -10.589844 C 0.449219 -10.140625 1.191406 -9.917969 2.011719 -9.917969 C 4.773438 -9.917969 7.980469 -13.125 9.695312 -15.882812 C 9.46875 -12.378906 11.109375 -9.917969 13.722656 -9.917969 C 16.703125 -9.917969 21.027344 -13.125 25.800781 -21.847656 C 25.875 -22.148438 25.949219 -22.371094 25.949219 -22.519531 C 25.949219 -23.117188 25.652344 -23.566406 25.128906 -23.863281 C 24.980469 -23.9375 24.757812 -24.011719 24.460938 -24.011719 C 23.863281 -24.011719 23.414062 -23.789062 23.117188 -23.265625 C 20.730469 -18.492188 16.332031 -12.976562 14.167969 -12.976562 C 13.347656 -12.976562 12.902344 -13.648438 12.902344 -15.660156 C 12.902344 -16.628906 12.976562 -17.824219 13.273438 -19.3125 C 13.496094 -20.878906 13.796875 -22.445312 14.316406 -23.863281 C 14.691406 -24.980469 14.019531 -25.949219 12.902344 -25.949219 C 12.378906 -25.949219 11.929688 -25.652344 11.558594 -25.054688 C 9.769531 -21.625 6.859375 -15.957031 3.804688 -13.722656 C 3.132812 -13.199219 2.609375 -12.976562 2.089844 -12.976562 C 1.269531 -12.976562 0.894531 -13.570312 0.894531 -14.839844 C 0.894531 -18.71875 5.292969 -27.367188 13.273438 -27.367188 C 14.09375 -27.367188 14.765625 -28.039062 14.765625 -28.859375 C 14.765625 -29.679688 14.09375 -30.351562 13.273438 -30.351562 C 3.953125 -30.351562 -2.011719 -20.878906 -2.011719 -14.839844 C -2.011719 -12.976562 -1.417969 -11.410156 -0.222656 -10.589844 Z M -0.222656 -10.589844" transform="translate(313.249 305.702)"/></g></g></g></svg>