<svg xmlns="http://www.w3.org/2000/svg" width="375" viewBox="0 0 375 375" height="375" version="1.0"><defs><clipPath id="a"><path d="M 58.171875 65 L 327 65 L 327 235.863281 L 58.171875 235.863281 Z M 58.171875 65"/></clipPath></defs><g clip-path="url(#a)"><path d="M 163.496094 169.59375 C 163.382812 169.539062 151.566406 164.214844 143.46875 166.917969 C 143.699219 168.539062 144.492188 171.785156 147.25 174.40625 C 150.429688 177.449219 155.316406 178.875 161.761719 178.617188 C 162.585938 178.617188 163.296875 179.246094 163.324219 180.070312 C 163.355469 180.894531 162.699219 181.605469 161.878906 181.636719 C 161.367188 181.664062 160.855469 181.664062 160.34375 181.664062 C 153.78125 181.664062 148.640625 179.925781 145.117188 176.539062 C 140.402344 171.984375 140.34375 166.148438 140.34375 165.921875 C 140.34375 165.324219 140.6875 164.785156 141.253906 164.527344 C 150.601562 160.457031 164.148438 166.578125 164.746094 166.832031 C 165.511719 167.175781 165.824219 168.085938 165.484375 168.824219 C 165.144531 169.621094 164.234375 169.964844 163.496094 169.59375 Z M 165.144531 161.679688 C 165.769531 162.222656 166.707031 162.136719 167.273438 161.539062 C 167.8125 160.910156 167.757812 159.945312 167.132812 159.402344 C 166.734375 159.0625 157.390625 151.234375 135.347656 159.117188 C 127.761719 161.824219 122.167969 161.964844 118.671875 159.488281 C 114.242188 156.355469 113.730469 149.496094 113.730469 144.601562 C 113.730469 140.613281 115.605469 135.320312 117.394531 130.226562 C 119.835938 123.308594 122.363281 116.164062 120.945312 110.78125 C 119.808594 106.425781 117.023438 105.773438 114.324219 105.144531 C 110.40625 104.234375 105.007812 102.980469 98.589844 90.113281 C 89.613281 72.179688 89.640625 67.910156 89.726562 67.3125 C 90.011719 66.773438 89.984375 66.117188 89.554688 65.605469 C 89.015625 64.980469 88.078125 64.863281 87.425781 65.40625 C 85.296875 67.199219 88.136719 75.96875 95.863281 91.453125 C 102.933594 105.601562 109.355469 107.109375 113.617188 108.078125 C 116.230469 108.675781 117.308594 108.929688 117.992188 111.523438 C 119.15625 116.019531 116.796875 122.710938 114.496094 129.199219 C 112.59375 134.550781 110.660156 140.101562 110.660156 144.601562 C 110.660156 150.152344 111.316406 158.007812 116.882812 161.9375 C 119.042969 163.472656 121.769531 164.242188 125.007812 164.242188 C 128.246094 164.242188 132.023438 163.472656 136.285156 161.9375 C 156.480469 154.734375 165 161.566406 165.144531 161.679688 Z M 138.667969 147.445312 C 143.640625 147.875 147.929688 147.84375 151.679688 147.816406 C 161.820312 147.761719 167.925781 147.730469 174.519531 156.1875 C 174.800781 156.554688 175.257812 156.753906 175.710938 156.753906 C 176.023438 156.753906 176.363281 156.640625 176.648438 156.441406 C 177.300781 155.929688 177.414062 154.992188 176.902344 154.335938 C 169.40625 144.714844 161.960938 144.769531 151.679688 144.828125 C 147.957031 144.855469 143.753906 144.855469 138.925781 144.457031 C 132.449219 143.917969 127.988281 142.125 126 139.277344 C 124.296875 136.828125 124.949219 134.378906 124.976562 134.265625 C 125.207031 133.46875 124.75 132.644531 123.957031 132.386719 C 123.160156 132.160156 122.308594 132.617188 122.082031 133.414062 C 122.023438 133.554688 120.972656 137.285156 123.472656 140.929688 C 126 144.601562 131.113281 146.820312 138.667969 147.445312 Z M 109.070312 155.816406 C 108.757812 155.757812 79.132812 148.8125 71.433594 125.300781 C 68.082031 115.136719 65.242188 108.703125 63.535156 104.859375 C 62.714844 103.039062 61.945312 101.273438 61.777344 100.503906 C 61.972656 100.476562 62.285156 100.421875 62.828125 100.390625 C 68.421875 100.019531 74.84375 100.390625 74.925781 100.390625 C 75.609375 100.421875 76.234375 99.992188 76.433594 99.339844 C 76.632812 98.683594 76.375 97.972656 75.78125 97.601562 C 75.523438 97.429688 69.445312 93.472656 74.8125 83.054688 L 80.949219 71.128906 C 81.320312 70.386719 81.035156 69.476562 80.296875 69.105469 C 79.558594 68.738281 78.648438 69.019531 78.28125 69.761719 L 72.117188 81.632812 C 68.167969 89.316406 69.558594 94.355469 71.40625 97.203125 C 68.992188 97.144531 65.695312 97.144531 62.597656 97.34375 C 61.207031 97.429688 59.789062 97.628906 59.078125 98.824219 C 58.195312 100.277344 58.964844 101.984375 60.78125 106.085938 C 62.457031 109.871094 65.269531 116.21875 68.566406 126.238281 C 71.972656 136.65625 79.957031 145.597656 91.660156 152.085938 C 100.4375 156.953125 108.078125 158.691406 108.417969 158.777344 C 108.53125 158.804688 108.644531 158.804688 108.757812 158.804688 C 109.441406 158.804688 110.066406 158.320312 110.234375 157.636719 C 110.378906 156.8125 109.894531 156.015625 109.070312 155.816406 Z M 104.128906 148.042969 C 104.46875 148.042969 104.839844 147.929688 105.121094 147.675781 C 105.746094 147.132812 105.832031 146.167969 105.265625 145.539062 C 98.277344 137.425781 92.964844 118.640625 92.910156 118.441406 C 92.679688 117.640625 91.855469 117.1875 91.0625 117.386719 C 90.265625 117.613281 89.785156 118.441406 90.011719 119.238281 C 90.238281 120.035156 95.550781 138.878906 102.992188 147.503906 C 103.304688 147.875 103.703125 148.042969 104.128906 148.042969 Z M 217.550781 190.488281 C 216.1875 185.933594 215.648438 180.441406 216.019531 174.175781 C 216.386719 167.800781 217.550781 162.90625 217.582031 162.847656 C 217.75 162.164062 217.4375 161.480469 216.8125 161.140625 C 207.894531 156.472656 193.71875 153.796875 193.125 153.679688 C 193.007812 153.652344 192.925781 153.652344 192.8125 153.652344 C 192.699219 153.652344 192.613281 153.652344 192.5 153.679688 C 191.902344 153.796875 177.726562 156.472656 168.808594 161.140625 C 168.183594 161.453125 167.871094 162.164062 168.042969 162.847656 C 168.042969 162.90625 169.234375 167.800781 169.601562 174.175781 C 169.972656 180.46875 169.433594 185.960938 168.070312 190.488281 C 167.730469 191.628906 167.386719 192.710938 167.074219 193.761719 C 163.722656 204.496094 161.707031 210.984375 171.363281 217.5625 C 171.621094 217.730469 171.933594 217.816406 172.214844 217.816406 C 172.699219 217.816406 173.183594 217.589844 173.464844 217.164062 C 173.921875 216.480469 173.75 215.539062 173.070312 215.054688 C 165.257812 209.734375 166.734375 205.007812 169.972656 194.644531 C 170.285156 193.589844 170.625 192.511719 170.996094 191.371094 C 172.472656 186.476562 173.039062 180.640625 172.644531 174.007812 C 172.359375 169.167969 171.648438 165.183594 171.28125 163.304688 C 179.234375 159.460938 191.078125 157.039062 192.867188 156.699219 C 194.65625 157.039062 206.503906 159.460938 214.457031 163.304688 C 214.058594 165.183594 213.347656 169.140625 213.09375 174.007812 C 212.722656 180.640625 213.261719 186.476562 214.738281 191.371094 C 215.082031 192.539062 215.421875 193.621094 215.761719 194.671875 C 218.972656 205.007812 220.449219 209.734375 212.667969 215.054688 C 211.984375 215.511719 211.785156 216.449219 212.269531 217.164062 C 212.554688 217.589844 213.035156 217.816406 213.519531 217.816406 C 213.800781 217.816406 214.113281 217.730469 214.371094 217.5625 C 224.027344 210.984375 222.011719 204.523438 218.660156 193.792969 C 218.234375 192.710938 217.894531 191.628906 217.550781 190.488281 Z M 244.339844 164.554688 C 235.023438 160.484375 221.445312 166.605469 220.847656 166.863281 C 220.082031 167.203125 219.769531 168.113281 220.109375 168.855469 C 220.449219 169.59375 221.359375 169.9375 222.097656 169.59375 C 222.210938 169.539062 234.027344 164.214844 242.125 166.917969 C 241.894531 168.539062 241.101562 171.785156 238.34375 174.40625 C 235.164062 177.449219 230.277344 178.875 223.828125 178.617188 C 223.007812 178.589844 222.296875 179.246094 222.265625 180.070312 C 222.238281 180.894531 222.890625 181.605469 223.714844 181.636719 C 224.226562 181.664062 224.738281 181.664062 225.25 181.664062 C 231.8125 181.664062 236.953125 179.925781 240.476562 176.539062 C 245.191406 171.984375 245.246094 166.148438 245.246094 165.921875 C 245.246094 165.324219 244.878906 164.785156 244.339844 164.554688 Z M 267.574219 111.550781 C 268.257812 108.960938 269.335938 108.703125 271.949219 108.105469 C 276.210938 107.109375 282.65625 105.628906 289.703125 91.480469 C 297.457031 75.96875 300.296875 67.199219 298.167969 65.40625 C 297.542969 64.863281 296.578125 64.949219 296.035156 65.605469 C 295.640625 66.089844 295.582031 66.773438 295.867188 67.3125 C 295.921875 67.910156 295.980469 72.179688 287.003906 90.113281 C 280.585938 103.011719 275.1875 104.234375 271.265625 105.144531 C 268.570312 105.773438 265.785156 106.398438 264.648438 110.78125 C 263.257812 116.164062 265.785156 123.308594 268.199219 130.226562 C 270.015625 135.347656 271.863281 140.613281 271.863281 144.601562 C 271.863281 149.496094 271.351562 156.355469 266.921875 159.488281 C 263.425781 161.964844 257.832031 161.824219 250.246094 159.117188 C 228.175781 151.234375 218.832031 159.0625 218.460938 159.402344 C 217.835938 159.945312 217.78125 160.882812 218.320312 161.507812 C 218.859375 162.136719 219.796875 162.222656 220.449219 161.679688 C 220.476562 161.652344 222.578125 159.914062 227.125 159.089844 C 231.355469 158.292969 238.65625 158.179688 249.28125 161.964844 C 253.542969 163.503906 257.320312 164.269531 260.558594 164.269531 C 263.796875 164.269531 266.523438 163.503906 268.683594 161.964844 C 274.25 158.035156 274.902344 150.179688 274.902344 144.628906 C 274.902344 140.132812 272.941406 134.582031 271.070312 129.226562 C 268.769531 122.738281 266.410156 116.046875 267.574219 111.550781 Z M 208.972656 156.441406 C 209.257812 156.671875 209.570312 156.753906 209.910156 156.753906 C 210.367188 156.753906 210.792969 156.554688 211.105469 156.1875 C 217.695312 147.730469 223.800781 147.789062 233.941406 147.816406 C 237.71875 147.84375 241.980469 147.84375 246.953125 147.445312 C 254.507812 146.820312 259.621094 144.628906 262.148438 140.898438 C 264.648438 137.226562 263.570312 133.527344 263.539062 133.382812 C 263.3125 132.585938 262.460938 132.132812 261.695312 132.359375 C 260.898438 132.585938 260.445312 133.414062 260.671875 134.210938 C 260.699219 134.324219 261.355469 136.773438 259.648438 139.21875 C 257.660156 142.066406 253.203125 143.859375 246.726562 144.402344 C 241.894531 144.800781 237.691406 144.800781 233.96875 144.769531 C 223.6875 144.714844 216.246094 144.6875 208.746094 154.277344 C 208.207031 154.960938 208.320312 155.929688 208.972656 156.441406 Z M 326.515625 98.824219 C 325.804688 97.628906 324.386719 97.460938 322.992188 97.34375 C 319.898438 97.144531 316.632812 97.144531 314.1875 97.203125 C 316.035156 94.355469 317.425781 89.316406 313.476562 81.632812 L 307.34375 69.703125 C 306.972656 68.964844 306.0625 68.679688 305.324219 69.050781 C 304.585938 69.417969 304.304688 70.332031 304.671875 71.070312 L 310.808594 83 C 316.175781 93.417969 310.097656 97.375 309.84375 97.542969 C 309.246094 97.914062 308.960938 98.625 309.1875 99.28125 C 309.386719 99.9375 310.039062 100.363281 310.722656 100.335938 C 310.78125 100.335938 317.226562 99.964844 322.796875 100.335938 C 323.304688 100.363281 323.648438 100.421875 323.847656 100.449219 C 323.675781 101.246094 322.910156 102.980469 322.085938 104.804688 C 320.378906 108.648438 317.511719 115.082031 314.1875 125.242188 C 306.492188 148.726562 276.835938 155.703125 276.550781 155.757812 C 275.726562 155.929688 275.242188 156.753906 275.414062 157.554688 C 275.585938 158.265625 276.179688 158.71875 276.890625 158.71875 C 277.003906 158.71875 277.117188 158.71875 277.234375 158.691406 C 277.546875 158.605469 285.214844 156.871094 293.992188 152 C 305.695312 145.539062 313.675781 136.601562 317.085938 126.152344 C 320.378906 116.105469 323.191406 109.785156 324.867188 106 C 326.660156 101.984375 327.398438 100.277344 326.515625 98.824219 Z M 292.683594 118.441406 C 292.628906 118.640625 287.316406 137.425781 280.328125 145.539062 C 279.789062 146.167969 279.847656 147.132812 280.472656 147.675781 C 280.753906 147.929688 281.09375 148.042969 281.464844 148.042969 C 281.890625 148.042969 282.316406 147.875 282.601562 147.53125 C 290.015625 138.90625 295.355469 120.0625 295.554688 119.265625 C 295.78125 118.46875 295.296875 117.640625 294.503906 117.414062 C 293.734375 117.1875 292.882812 117.640625 292.683594 118.441406 Z M 207.382812 174.804688 C 209.117188 172.582031 211.21875 172.640625 211.359375 172.667969 C 212.183594 172.726562 212.894531 172.097656 212.980469 171.273438 C 213.035156 170.449219 212.4375 169.707031 211.617188 169.652344 C 211.472656 169.652344 207.921875 169.394531 205.140625 172.839844 C 200.507812 178.5625 200.90625 190.546875 206.273438 208.453125 C 207.949219 214.03125 209.628906 220.75 207.753906 223.082031 C 207.496094 223.398438 206.757812 224.277344 204.03125 224.023438 C 196.246094 223.28125 193.292969 222.542969 193.265625 222.515625 C 193.125 222.484375 192.980469 222.457031 192.839844 222.484375 C 192.699219 222.484375 192.582031 222.484375 192.441406 222.515625 C 192.414062 222.515625 189.460938 223.253906 181.675781 224.023438 C 178.949219 224.277344 178.210938 223.367188 177.953125 223.082031 C 176.050781 220.777344 177.757812 214.058594 179.433594 208.453125 C 184.800781 190.546875 185.199219 178.5625 180.566406 172.839844 C 177.785156 169.394531 174.234375 169.652344 174.089844 169.652344 C 173.269531 169.707031 172.644531 170.449219 172.726562 171.273438 C 172.785156 172.097656 173.550781 172.726562 174.347656 172.640625 C 174.375 172.640625 176.476562 172.527344 178.238281 174.71875 C 180.453125 177.480469 183.210938 185.421875 176.5625 207.570312 C 174.121094 215.710938 173.039062 221.773438 175.652344 224.960938 C 176.789062 226.355469 178.523438 227.070312 180.796875 227.070312 C 181.164062 227.070312 181.5625 227.039062 181.988281 227.011719 C 188.691406 226.386719 191.902344 225.730469 192.894531 225.503906 C 193.890625 225.730469 197.101562 226.355469 203.804688 227.011719 C 204.203125 227.039062 204.597656 227.070312 204.996094 227.070312 C 207.269531 227.070312 209.003906 226.355469 210.136719 224.960938 C 212.75 221.773438 211.671875 215.683594 209.230469 207.539062 C 202.496094 185.5625 205.195312 177.59375 207.382812 174.804688 Z M 202.441406 228.265625 C 202.382812 228.320312 197.496094 232.847656 192.839844 232.847656 C 192.839844 232.847656 192.8125 232.847656 192.8125 232.847656 C 192.8125 232.847656 192.78125 232.847656 192.78125 232.847656 C 188.152344 232.847656 183.238281 228.320312 183.179688 228.265625 C 182.585938 227.695312 181.617188 227.722656 181.050781 228.351562 C 180.484375 228.949219 180.511719 229.914062 181.109375 230.484375 C 181.335938 230.710938 186.902344 235.863281 192.753906 235.863281 C 192.753906 235.863281 192.78125 235.863281 192.78125 235.863281 C 192.78125 235.863281 192.8125 235.863281 192.8125 235.863281 C 198.632812 235.863281 204.230469 230.683594 204.457031 230.484375 C 205.054688 229.914062 205.082031 228.976562 204.515625 228.351562 C 203.972656 227.722656 203.035156 227.695312 202.441406 228.265625 Z M 202.441406 228.265625"/></g><g><g><g><path d="M 10.097656 0 C 10.824219 0 11.285156 -0.527344 11.285156 -1.253906 L 11.285156 -1.386719 C 10.953125 -6.863281 10.824219 -12.207031 10.824219 -17.6875 C 13.394531 -16.167969 14.253906 -15.179688 28.375 -2.835938 C 28.574219 -2.640625 28.90625 -2.507812 29.300781 -2.507812 C 29.695312 -2.507812 30.027344 -2.640625 30.289062 -2.96875 C 30.488281 -3.300781 30.621094 -3.5625 30.621094 -3.828125 C 30.621094 -4.15625 30.488281 -4.488281 30.160156 -4.816406 C 16.167969 -17.222656 14.714844 -18.476562 11.613281 -20.257812 C 23.691406 -26.660156 29.035156 -33.457031 29.035156 -38.671875 C 29.035156 -43.949219 23.824219 -47.449219 14.78125 -47.449219 L 13.660156 -47.449219 C 13.332031 -47.449219 12.933594 -47.449219 12.605469 -47.382812 L 12.738281 -48.4375 C 12.800781 -49.230469 12.273438 -49.890625 11.484375 -49.890625 C 10.757812 -49.890625 10.292969 -49.429688 10.097656 -48.703125 L 9.898438 -47.117188 C 7.851562 -46.855469 6.003906 -46.394531 4.089844 -45.796875 C 3.496094 -45.601562 3.167969 -45.074219 3.167969 -44.546875 C 3.167969 -44.347656 3.167969 -44.214844 3.234375 -44.148438 C 3.367188 -43.554688 3.761719 -43.226562 4.488281 -43.226562 C 4.683594 -43.226562 4.816406 -43.226562 4.882812 -43.292969 C 6.402344 -43.753906 7.984375 -44.148438 9.636719 -44.414062 C 8.84375 -36.890625 8.382812 -29.300781 8.25 -21.710938 C 7.0625 -22.042969 5.875 -22.171875 4.683594 -22.171875 C 0.925781 -22.171875 -1.78125 -20.457031 -2.507812 -18.808594 C -2.640625 -18.476562 -2.707031 -18.148438 -2.707031 -17.882812 C -2.707031 -16.628906 -1.714844 -15.507812 0.0664062 -15.507812 C 0.660156 -15.507812 1.320312 -15.574219 2.046875 -15.902344 C 4.222656 -16.761719 6.269531 -17.554688 8.183594 -18.542969 C 8.183594 -12.738281 8.25 -6.996094 8.710938 -1.1875 C 8.710938 -0.460938 9.238281 0 9.964844 0 Z M 10.890625 -22.898438 C 11.085938 -30.222656 11.546875 -37.417969 12.339844 -44.742188 C 12.738281 -44.808594 13.132812 -44.808594 13.527344 -44.808594 L 14.78125 -44.808594 C 20.0625 -44.808594 26.332031 -43.554688 26.332031 -38.472656 C 26.332031 -32.203125 16.433594 -25.804688 10.890625 -22.898438 Z M 0.132812 -18.082031 C 0.59375 -18.542969 1.914062 -19.335938 3.960938 -19.535156 C 0.988281 -18.148438 0.460938 -18.082031 0.132812 -18.082031 Z M 0.132812 -18.082031" transform="translate(64.05 294.678)"/></g></g></g><g><g><g><path d="M 10.492188 -12.339844 C 11.484375 -14.121094 12.078125 -16.167969 12.078125 -18.214844 C 12.800781 -18.082031 13.527344 -18.015625 14.386719 -18.015625 C 15.902344 -18.015625 17.554688 -18.28125 19.335938 -18.742188 C 19.996094 -18.941406 20.324219 -19.402344 20.324219 -20.128906 L 20.324219 -20.390625 C 20.128906 -20.917969 19.601562 -21.382812 19.003906 -21.382812 C 18.808594 -21.382812 18.875 -21.316406 18.675781 -21.316406 C 17.15625 -20.855469 15.773438 -20.65625 14.453125 -20.65625 C 13.394531 -20.65625 12.472656 -20.855469 11.679688 -21.050781 C 11.152344 -23.425781 8.976562 -26.992188 6.46875 -26.660156 C 6.269531 -26.792969 6.003906 -26.859375 5.742188 -26.859375 C 5.410156 -26.859375 5.082031 -26.792969 4.882812 -26.59375 C 2.96875 -24.945312 1.519531 -22.832031 0.792969 -20.257812 C 0.328125 -18.808594 0.132812 -17.421875 0.132812 -16.101562 C 0.132812 -11.613281 2.640625 -8.777344 5.476562 -8.777344 C 7.257812 -8.777344 8.976562 -9.898438 10.492188 -12.339844 Z M 8.183594 -13.726562 C 7.191406 -12.144531 6.269531 -11.351562 5.410156 -11.351562 C 3.894531 -11.351562 2.835938 -13.527344 2.835938 -16.367188 C 2.835938 -18.476562 3.496094 -20.984375 5.148438 -23.097656 C 5.742188 -21.578125 7.191406 -20.0625 9.371094 -19.070312 C 9.371094 -18.808594 9.4375 -18.542969 9.4375 -18.214844 C 9.4375 -16.5625 8.910156 -14.980469 8.183594 -13.726562 Z M 8.183594 -13.726562" transform="translate(91.236 294.678)"/></g></g></g><g><g><g><path d="M -1.78125 -9.832031 C -1.914062 -9.503906 -1.980469 -9.171875 -1.980469 -8.84375 C -1.980469 -7.191406 -0.527344 -6.203125 1.121094 -6.203125 C 3.300781 -6.203125 5.808594 -7.851562 5.808594 -12.273438 L 5.808594 -12.800781 C 5.808594 -13 5.808594 -13.199219 5.742188 -13.394531 C 8.84375 -15.707031 11.945312 -17.621094 15.640625 -18.875 C 16.234375 -19.070312 16.5625 -19.535156 16.5625 -20.128906 C 16.5625 -20.324219 16.5625 -20.523438 16.5 -20.589844 C 16.300781 -21.117188 15.839844 -21.449219 15.308594 -21.449219 C 15.113281 -21.449219 14.914062 -21.449219 14.847656 -21.382812 C 11.21875 -20.128906 8.183594 -18.347656 5.214844 -16.234375 C 4.683594 -18.347656 3.101562 -21.710938 3.101562 -24.019531 C 3.101562 -24.8125 3.300781 -25.40625 3.628906 -25.738281 C 3.828125 -25.933594 4.222656 -26.398438 4.949219 -26.398438 C 5.410156 -26.398438 5.9375 -26.265625 6.535156 -25.933594 C 6.796875 -25.867188 6.996094 -25.804688 7.128906 -25.804688 C 7.589844 -25.804688 7.984375 -26 8.316406 -26.464844 C 8.445312 -26.660156 8.511719 -26.859375 8.511719 -27.121094 C 8.511719 -27.652344 8.25 -28.046875 7.789062 -28.246094 C 6.863281 -28.773438 5.9375 -29.035156 4.949219 -29.035156 C 2.507812 -29.035156 0.460938 -27.1875 0.460938 -23.824219 C 0.460938 -23.363281 0.527344 -22.964844 0.59375 -22.4375 C 1.121094 -19.46875 2.375 -17.488281 2.96875 -14.519531 C -0.394531 -11.945312 -1.320312 -11.085938 -1.78125 -9.832031 Z M 0.660156 -8.910156 C 0.859375 -9.371094 1.582031 -10.03125 3.101562 -11.285156 C 2.773438 -8.84375 1.121094 -8.578125 0.660156 -8.910156 Z M 0.660156 -8.910156" transform="translate(105.16 294.678)"/></g></g></g><g><g><g><path d="M 2.507812 -9.4375 C 4.816406 -14.054688 9.304688 -24.285156 11.878906 -24.285156 C 12.605469 -24.285156 13.066406 -23.558594 13.527344 -21.710938 C 15.046875 -14.585938 17.816406 -11.21875 21.25 -11.21875 C 24.351562 -11.21875 27.980469 -13.992188 31.476562 -19.269531 C 31.609375 -19.46875 31.675781 -19.664062 31.675781 -19.929688 C 31.675781 -20.390625 31.476562 -20.789062 31.082031 -21.050781 C 30.882812 -21.183594 30.621094 -21.25 30.355469 -21.25 C 29.894531 -21.25 29.5 -21.183594 29.234375 -20.722656 C 26.726562 -17.027344 23.230469 -13.394531 20.65625 -13.925781 C 19.863281 -14.054688 19.070312 -14.648438 18.347656 -15.773438 C 15.574219 -20.128906 16.761719 -25.933594 12.605469 -26.792969 C 12.40625 -26.859375 12.144531 -26.859375 11.746094 -26.859375 C 8.117188 -26.859375 5.148438 -20.789062 3.035156 -16.433594 C 3.5625 -26.792969 3.894531 -38.472656 5.28125 -45.796875 C 5.476562 -46.523438 4.949219 -47.183594 4.222656 -47.382812 C 3.496094 -47.449219 2.902344 -46.988281 2.707031 -46.261719 C 1.121094 -37.085938 0.726562 -21.976562 0 -10.164062 C -0.0664062 -9.304688 0.660156 -8.777344 1.386719 -8.777344 C 1.847656 -8.777344 2.242188 -8.976562 2.507812 -9.4375 Z M 2.507812 -9.4375" transform="translate(115.453 294.678)"/></g></g></g><g><g><g><path d="M -0.199219 -9.371094 C 0.394531 -8.976562 1.054688 -8.777344 1.78125 -8.777344 C 4.222656 -8.777344 7.0625 -11.613281 8.578125 -14.054688 C 8.382812 -10.953125 9.832031 -8.777344 12.144531 -8.777344 C 14.78125 -8.777344 18.609375 -11.613281 22.832031 -19.335938 C 22.898438 -19.601562 22.964844 -19.796875 22.964844 -19.929688 C 22.964844 -20.457031 22.703125 -20.855469 22.238281 -21.117188 C 22.109375 -21.183594 21.910156 -21.25 21.644531 -21.25 C 21.117188 -21.25 20.722656 -21.050781 20.457031 -20.589844 C 18.347656 -16.367188 14.453125 -11.484375 12.539062 -11.484375 C 11.8125 -11.484375 11.417969 -12.078125 11.417969 -13.859375 C 11.417969 -14.714844 11.484375 -15.773438 11.746094 -17.09375 C 11.945312 -18.476562 12.207031 -19.863281 12.671875 -21.117188 C 13 -22.109375 12.40625 -22.964844 11.417969 -22.964844 C 10.953125 -22.964844 10.558594 -22.703125 10.230469 -22.171875 C 8.644531 -19.136719 6.070312 -14.121094 3.367188 -12.144531 C 2.773438 -11.679688 2.308594 -11.484375 1.847656 -11.484375 C 1.121094 -11.484375 0.792969 -12.011719 0.792969 -13.132812 C 0.792969 -16.5625 4.683594 -24.21875 11.746094 -24.21875 C 12.472656 -24.21875 13.066406 -24.8125 13.066406 -25.539062 C 13.066406 -26.265625 12.472656 -26.859375 11.746094 -26.859375 C 3.496094 -26.859375 -1.78125 -18.476562 -1.78125 -13.132812 C -1.78125 -11.484375 -1.253906 -10.097656 -0.199219 -9.371094 Z M -0.199219 -9.371094" transform="translate(140.462 294.678)"/></g></g></g><g><g><g><path d="M 1.320312 -8.84375 C 1.914062 -8.84375 2.308594 -9.105469 2.507812 -9.699219 C 4.949219 -16.5625 7.851562 -23.757812 9.371094 -23.757812 C 9.636719 -23.757812 9.832031 -23.558594 10.03125 -23.097656 C 10.230469 -22.503906 10.359375 -21.710938 10.359375 -20.722656 C 10.359375 -18.28125 9.898438 -15.179688 12.738281 -13.394531 C 13.460938 -12.933594 14.253906 -12.671875 15.246094 -12.671875 C 18.742188 -12.671875 22.109375 -16.101562 24.085938 -19.335938 C 24.21875 -19.535156 24.285156 -19.730469 24.285156 -19.996094 C 24.285156 -20.523438 24.085938 -20.917969 23.625 -21.117188 C 23.425781 -21.25 23.164062 -21.316406 22.898438 -21.316406 C 22.4375 -21.316406 22.042969 -21.117188 21.84375 -20.65625 C 20.589844 -18.476562 17.6875 -15.308594 15.375 -15.308594 C 14.914062 -15.308594 14.519531 -15.441406 14.1875 -15.640625 C 12.671875 -16.628906 13 -18.609375 13 -20.789062 C 13 -21.910156 12.933594 -23.097656 12.472656 -24.152344 C 11.878906 -25.671875 10.625 -26.464844 9.238281 -26.464844 C 6.46875 -26.464844 4.949219 -22.964844 3.234375 -18.808594 C 3.496094 -21.382812 3.695312 -23.558594 3.960938 -25.40625 C 4.15625 -26.132812 3.5625 -26.859375 2.835938 -26.925781 C 2.113281 -27.121094 1.453125 -26.527344 1.386719 -25.804688 C 0.660156 -20.722656 0.199219 -14.453125 0 -10.230469 C -0.0664062 -9.503906 0.527344 -8.84375 1.320312 -8.84375 Z M 1.320312 -8.84375" transform="translate(156.76 294.678)"/></g></g></g><g><g><g><path d="M 8.910156 0.0664062 C 13.925781 0.0664062 16.695312 -3.828125 16.695312 -8.910156 C 16.695312 -11.21875 16.101562 -13.859375 14.847656 -16.433594 C 17.027344 -17.15625 19.796875 -17.554688 22.964844 -17.554688 C 23.757812 -17.554688 24.679688 -17.488281 25.539062 -17.421875 C 26.332031 -17.355469 26.925781 -17.949219 26.925781 -18.742188 C 26.925781 -19.46875 26.464844 -19.996094 25.738281 -20.0625 C 24.746094 -20.128906 23.824219 -20.195312 22.832031 -20.195312 C 19.136719 -20.195312 16.101562 -19.601562 13.527344 -18.808594 C 11.484375 -22.042969 8.84375 -24.8125 6.535156 -27.652344 C 4.355469 -30.488281 2.640625 -33.855469 2.640625 -37.085938 C 2.640625 -39.132812 3.234375 -41.046875 4.816406 -42.632812 C 6.203125 -44.015625 7.722656 -44.675781 9.4375 -44.675781 C 12.933594 -44.675781 16.101562 -41.839844 17.027344 -37.746094 C 17.222656 -37.023438 17.6875 -36.691406 18.347656 -36.691406 L 18.609375 -36.691406 C 19.335938 -36.890625 19.664062 -37.351562 19.664062 -38.011719 L 19.664062 -38.277344 C 18.609375 -43.820312 14.054688 -47.316406 9.4375 -47.316406 C 7.128906 -47.316406 4.816406 -46.523438 2.902344 -44.480469 C 0.859375 -42.367188 0 -39.792969 0 -37.152344 C 0 -33.390625 1.78125 -29.367188 4.421875 -26 C 6.597656 -23.164062 9.105469 -20.722656 11.019531 -17.882812 C 7.324219 -16.300781 3.167969 -13.460938 1.453125 -9.832031 C 0.925781 -8.710938 0.660156 -7.65625 0.660156 -6.730469 C 0.660156 -2.773438 4.488281 0.0664062 8.910156 0.0664062 Z M 11.484375 -3.300781 C 10.757812 -2.835938 9.832031 -2.640625 8.710938 -2.640625 C 6.070312 -2.640625 3.367188 -4.15625 3.367188 -6.730469 C 3.367188 -7.390625 3.496094 -8.050781 3.828125 -8.644531 C 5.410156 -11.8125 9.105469 -14.253906 12.339844 -15.574219 C 13.332031 -13.527344 14.054688 -11.019531 14.054688 -8.710938 C 14.054688 -6.402344 13.332031 -4.355469 11.484375 -3.300781 Z M 11.484375 -3.300781" transform="translate(184.144 294.678)"/></g></g></g><g><g><g><path d="M 2.507812 -9.4375 C 4.816406 -14.054688 9.304688 -24.285156 11.878906 -24.285156 C 12.605469 -24.285156 13.066406 -23.558594 13.527344 -21.710938 C 15.046875 -14.585938 17.816406 -11.21875 21.25 -11.21875 C 24.351562 -11.21875 27.980469 -13.992188 31.476562 -19.269531 C 31.609375 -19.46875 31.675781 -19.664062 31.675781 -19.929688 C 31.675781 -20.390625 31.476562 -20.789062 31.082031 -21.050781 C 30.882812 -21.183594 30.621094 -21.25 30.355469 -21.25 C 29.894531 -21.25 29.5 -21.183594 29.234375 -20.722656 C 26.726562 -17.027344 23.230469 -13.394531 20.65625 -13.925781 C 19.863281 -14.054688 19.070312 -14.648438 18.347656 -15.773438 C 15.574219 -20.128906 16.761719 -25.933594 12.605469 -26.792969 C 12.40625 -26.859375 12.144531 -26.859375 11.746094 -26.859375 C 8.117188 -26.859375 5.148438 -20.789062 3.035156 -16.433594 C 3.5625 -26.792969 3.894531 -38.472656 5.28125 -45.796875 C 5.476562 -46.523438 4.949219 -47.183594 4.222656 -47.382812 C 3.496094 -47.449219 2.902344 -46.988281 2.707031 -46.261719 C 1.121094 -37.085938 0.726562 -21.976562 0 -10.164062 C -0.0664062 -9.304688 0.660156 -8.777344 1.386719 -8.777344 C 1.847656 -8.777344 2.242188 -8.976562 2.507812 -9.4375 Z M 2.507812 -9.4375" transform="translate(205.92 294.678)"/></g></g></g><g><g><g><path d="M 1.320312 -9.304688 C 2.046875 -9.304688 2.640625 -9.832031 2.640625 -10.558594 C 2.96875 -17.621094 9.832031 -25.40625 13.265625 -24.746094 C 13.992188 -24.550781 14.585938 -25.011719 14.78125 -25.738281 C 14.980469 -26.464844 14.519531 -27.121094 13.792969 -27.320312 C 13.332031 -27.386719 13 -27.453125 12.738281 -27.453125 C 9.039062 -27.453125 5.148438 -23.164062 3.234375 -19.996094 C 3.429688 -21.910156 3.496094 -23.890625 3.496094 -25.933594 C 3.496094 -26.660156 2.902344 -27.253906 2.179688 -27.253906 C 1.453125 -27.253906 0.859375 -26.660156 0.859375 -25.933594 C 0.792969 -20.917969 0.0664062 -15.839844 0 -10.625 C 0 -9.898438 0.59375 -9.371094 1.320312 -9.304688 Z M 1.320312 -9.304688" transform="translate(230.929 294.678)"/></g></g></g><g><g><g><path d="M 6.929688 -8.777344 C 11.21875 -8.777344 16.5 -11.21875 21.449219 -19.335938 C 21.578125 -19.535156 21.644531 -19.730469 21.644531 -19.996094 C 21.644531 -20.589844 21.449219 -20.917969 20.984375 -21.117188 C 20.789062 -21.25 20.523438 -21.316406 20.324219 -21.316406 C 19.863281 -21.316406 19.46875 -21.117188 19.203125 -20.722656 C 16.894531 -16.828125 14.386719 -14.253906 11.746094 -12.738281 C 10.230469 -11.945312 8.445312 -11.417969 6.664062 -11.417969 C 4.222656 -11.417969 2.113281 -12.472656 2.113281 -15.308594 C 2.113281 -15.640625 2.179688 -15.96875 2.242188 -16.433594 C 6.664062 -16.761719 11.878906 -19.996094 11.878906 -23.492188 C 11.878906 -25.40625 10.425781 -26.925781 8.316406 -26.925781 C 6.996094 -26.925781 5.410156 -26.332031 3.761719 -24.746094 C 1.1875 -22.304688 -0.460938 -18.542969 -0.460938 -15.308594 C -0.460938 -11.8125 1.582031 -8.777344 6.929688 -8.777344 Z M 3.167969 -19.269531 C 4.949219 -22.964844 7.128906 -24.285156 8.382812 -24.285156 C 8.84375 -24.285156 9.105469 -24.152344 9.171875 -23.824219 C 9.503906 -22.304688 6.402344 -19.796875 3.167969 -19.269531 Z M 3.167969 -19.269531" transform="translate(242.74 294.678)"/></g></g></g><g><g><g><path d="M -1.78125 -9.832031 C -1.914062 -9.503906 -1.980469 -9.171875 -1.980469 -8.84375 C -1.980469 -7.191406 -0.527344 -6.203125 1.121094 -6.203125 C 3.300781 -6.203125 5.808594 -7.851562 5.808594 -12.273438 L 5.808594 -12.800781 C 5.808594 -13 5.808594 -13.199219 5.742188 -13.394531 C 8.84375 -15.707031 11.945312 -17.621094 15.640625 -18.875 C 16.234375 -19.070312 16.5625 -19.535156 16.5625 -20.128906 C 16.5625 -20.324219 16.5625 -20.523438 16.5 -20.589844 C 16.300781 -21.117188 15.839844 -21.449219 15.308594 -21.449219 C 15.113281 -21.449219 14.914062 -21.449219 14.847656 -21.382812 C 11.21875 -20.128906 8.183594 -18.347656 5.214844 -16.234375 C 4.683594 -18.347656 3.101562 -21.710938 3.101562 -24.019531 C 3.101562 -24.8125 3.300781 -25.40625 3.628906 -25.738281 C 3.828125 -25.933594 4.222656 -26.398438 4.949219 -26.398438 C 5.410156 -26.398438 5.9375 -26.265625 6.535156 -25.933594 C 6.796875 -25.867188 6.996094 -25.804688 7.128906 -25.804688 C 7.589844 -25.804688 7.984375 -26 8.316406 -26.464844 C 8.445312 -26.660156 8.511719 -26.859375 8.511719 -27.121094 C 8.511719 -27.652344 8.25 -28.046875 7.789062 -28.246094 C 6.863281 -28.773438 5.9375 -29.035156 4.949219 -29.035156 C 2.507812 -29.035156 0.460938 -27.1875 0.460938 -23.824219 C 0.460938 -23.363281 0.527344 -22.964844 0.59375 -22.4375 C 1.121094 -19.46875 2.375 -17.488281 2.96875 -14.519531 C -0.394531 -11.945312 -1.320312 -11.085938 -1.78125 -9.832031 Z M 0.660156 -8.910156 C 0.859375 -9.371094 1.582031 -10.03125 3.101562 -11.285156 C 2.773438 -8.84375 1.121094 -8.578125 0.660156 -8.910156 Z M 0.660156 -8.910156" transform="translate(257.653 294.678)"/></g></g></g><g><g><g><path d="M 2.640625 -8.445312 C 3.367188 -8.445312 3.894531 -9.105469 3.894531 -9.832031 C 3.695312 -13.460938 3.628906 -16.894531 3.628906 -20.257812 C 3.628906 -28.246094 4.089844 -35.703125 5.082031 -43.027344 L 20.457031 -43.421875 C 21.183594 -43.421875 21.777344 -44.015625 21.777344 -44.742188 C 21.777344 -45.46875 21.183594 -46.0625 20.390625 -46.0625 L 5.410156 -45.667969 C 5.875 -48.570312 6.402344 -51.40625 6.929688 -54.246094 C 7.128906 -55.039062 6.535156 -55.828125 5.675781 -55.828125 C 5.015625 -55.828125 4.554688 -55.5 4.355469 -54.773438 C 3.761719 -51.804688 3.234375 -48.769531 2.773438 -45.667969 L -9.304688 -45.269531 C -10.03125 -45.269531 -10.558594 -44.808594 -10.558594 -44.082031 L -10.558594 -43.949219 C -10.558594 -43.226562 -9.964844 -42.632812 -9.238281 -42.632812 L 2.375 -42.960938 C 1.453125 -35.703125 0.988281 -28.113281 0.988281 -20.257812 C 0.988281 -16.828125 1.054688 -13.394531 1.253906 -9.699219 C 1.253906 -8.976562 1.847656 -8.445312 2.574219 -8.445312 Z M 2.640625 -8.445312" transform="translate(267.947 294.678)"/></g></g></g><g><g><g><path d="M 2.507812 -9.4375 C 4.816406 -14.054688 9.304688 -24.285156 11.878906 -24.285156 C 12.605469 -24.285156 13.066406 -23.558594 13.527344 -21.710938 C 15.046875 -14.585938 17.816406 -11.21875 21.25 -11.21875 C 24.351562 -11.21875 27.980469 -13.992188 31.476562 -19.269531 C 31.609375 -19.46875 31.675781 -19.664062 31.675781 -19.929688 C 31.675781 -20.390625 31.476562 -20.789062 31.082031 -21.050781 C 30.882812 -21.183594 30.621094 -21.25 30.355469 -21.25 C 29.894531 -21.25 29.5 -21.183594 29.234375 -20.722656 C 26.726562 -17.027344 23.230469 -13.394531 20.65625 -13.925781 C 19.863281 -14.054688 19.070312 -14.648438 18.347656 -15.773438 C 15.574219 -20.128906 16.761719 -25.933594 12.605469 -26.792969 C 12.40625 -26.859375 12.144531 -26.859375 11.746094 -26.859375 C 8.117188 -26.859375 5.148438 -20.789062 3.035156 -16.433594 C 3.5625 -26.792969 3.894531 -38.472656 5.28125 -45.796875 C 5.476562 -46.523438 4.949219 -47.183594 4.222656 -47.382812 C 3.496094 -47.449219 2.902344 -46.988281 2.707031 -46.261719 C 1.121094 -37.085938 0.726562 -21.976562 0 -10.164062 C -0.0664062 -9.304688 0.660156 -8.777344 1.386719 -8.777344 C 1.847656 -8.777344 2.242188 -8.976562 2.507812 -9.4375 Z M 2.507812 -9.4375" transform="translate(276.92 294.678)"/></g></g></g><g><g><g><path d="M -0.199219 -9.371094 C 0.394531 -8.976562 1.054688 -8.777344 1.78125 -8.777344 C 4.222656 -8.777344 7.0625 -11.613281 8.578125 -14.054688 C 8.382812 -10.953125 9.832031 -8.777344 12.144531 -8.777344 C 14.78125 -8.777344 18.609375 -11.613281 22.832031 -19.335938 C 22.898438 -19.601562 22.964844 -19.796875 22.964844 -19.929688 C 22.964844 -20.457031 22.703125 -20.855469 22.238281 -21.117188 C 22.109375 -21.183594 21.910156 -21.25 21.644531 -21.25 C 21.117188 -21.25 20.722656 -21.050781 20.457031 -20.589844 C 18.347656 -16.367188 14.453125 -11.484375 12.539062 -11.484375 C 11.8125 -11.484375 11.417969 -12.078125 11.417969 -13.859375 C 11.417969 -14.714844 11.484375 -15.773438 11.746094 -17.09375 C 11.945312 -18.476562 12.207031 -19.863281 12.671875 -21.117188 C 13 -22.109375 12.40625 -22.964844 11.417969 -22.964844 C 10.953125 -22.964844 10.558594 -22.703125 10.230469 -22.171875 C 8.644531 -19.136719 6.070312 -14.121094 3.367188 -12.144531 C 2.773438 -11.679688 2.308594 -11.484375 1.847656 -11.484375 C 1.121094 -11.484375 0.792969 -12.011719 0.792969 -13.132812 C 0.792969 -16.5625 4.683594 -24.21875 11.746094 -24.21875 C 12.472656 -24.21875 13.066406 -24.8125 13.066406 -25.539062 C 13.066406 -26.265625 12.472656 -26.859375 11.746094 -26.859375 C 3.496094 -26.859375 -1.78125 -18.476562 -1.78125 -13.132812 C -1.78125 -11.484375 -1.253906 -10.097656 -0.199219 -9.371094 Z M -0.199219 -9.371094" transform="translate(301.93 294.678)"/></g></g></g></svg>